<svg xmlns="http://www.w3.org/2000/svg" version="1.1" xmlns:xlink="http://www.w3.org/1999/xlink" xmlns:svgjs="http://svgjs.com/svgjs" width="1440" height="560" preserveAspectRatio="none" viewBox="0 0 1440 560"><g mask="url(&quot;#SvgjsMask1021&quot;)" fill="none"><rect width="1440" height="560" x="0" y="0" fill="rgba(131, 24, 177, 1)"></rect><path d="M 0,59 C 32,97.8 96,263 160,253 C 224,243 256,25 320,9 C 384,-7 416,154.4 480,173 C 544,191.6 576,100.8 640,102 C 704,103.2 736,176.8 800,179 C 864,181.2 896,103 960,113 C 1024,123 1056,234 1120,229 C 1184,224 1216,103.2 1280,88 C 1344,72.8 1408,140 1440,153L1440 560L0 560z" fill="rgba(100, 27, 171, 1)"></path><path d="M 0,323 C 96,360 288,510.8 480,508 C 672,505.2 768,308.8 960,309 C 1152,309.2 1344,469 1440,509L1440 560L0 560z" fill="rgba(88, 27, 147, 1)"></path></g><defs><mask id="SvgjsMask1021"><rect width="1440" height="560" fill="#ffffff"></rect></mask></defs></svg>